<svg width="130" height="52" viewBox="0 0 130 52" fill="none" xmlns="http://www.w3.org/2000/svg">
<g id="Group 19">
<path id="Fill 1" fill-rule="evenodd" clip-rule="evenodd" d="M0 26.0486C0 35.5987 7.77024 43.3675 17.3203 43.3675C26.8704 43.3675 34.6421 35.5987 34.6421 26.0486C34.6421 16.4971 26.8704 8.72827 17.3203 8.72827C7.77024 8.72827 0 16.4971 0 26.0486Z" fill="#003846"/>
<g id="Group 5">
<mask id="mask0" mask-type="alpha" maskUnits="userSpaceOnUse" x="35" y="0" width="24" height="52">
<path id="Clip 4" fill-rule="evenodd" clip-rule="evenodd" d="M35.6417 0.240601H58.9107V51.8574H35.6417V0.240601Z" fill="white"/>
</mask>
<g mask="url(#mask0)">
<path id="Fill 3" fill-rule="evenodd" clip-rule="evenodd" d="M46.3064 51.8575H35.6417L48.2475 0.239258H58.9107L46.3064 51.8575Z" fill="#003846"/>
</g>
</g>
<g id="Group 8">
<mask id="mask1" mask-type="alpha" maskUnits="userSpaceOnUse" x="51" y="0" width="24" height="52">
<path id="Clip 7" fill-rule="evenodd" clip-rule="evenodd" d="M51.1597 0.240601H74.4272V51.8574H51.1597V0.240601Z" fill="white"/>
</mask>
<g mask="url(#mask1)">
<path id="Fill 6" fill-rule="evenodd" clip-rule="evenodd" d="M61.8229 51.8575H51.1597L63.764 0.239258H74.4272L61.8229 51.8575Z" fill="#003846"/>
</g>
</g>
<path id="Fill 9" fill-rule="evenodd" clip-rule="evenodd" d="M81.599 24.4061V12.902H86.9789C89.483 12.902 90.8438 14.594 90.8438 16.6114C90.8438 18.6116 89.4643 20.3194 86.9789 20.3194H84.0485V24.4061H81.599ZM88.3425 16.6114C88.3425 15.6437 87.6197 15.0591 86.6534 15.0591H84.0485V18.1637H86.6534C87.6197 18.1637 88.3425 17.5589 88.3425 16.6114Z" fill="#003846"/>
<path id="Fill 11" fill-rule="evenodd" clip-rule="evenodd" d="M92.3668 24.4076V12.9034H96.9028C100.507 12.9034 103.01 15.1974 103.01 18.6634C103.01 22.131 100.507 24.4076 96.9028 24.4076H92.3668ZM100.507 18.6634C100.507 16.6302 99.2658 15.0606 96.9028 15.0606H94.8162V22.2519H96.9028C99.1794 22.2519 100.507 20.6118 100.507 18.6634Z" fill="#003846"/>
<path id="Fill 13" fill-rule="evenodd" clip-rule="evenodd" d="M104.757 24.4061V12.902H110.136C112.64 12.902 114 14.594 114 16.6114C114 18.6116 112.622 20.3194 110.136 20.3194H107.205V24.4061H104.757ZM111.501 16.6114C111.501 15.6437 110.776 15.0591 109.81 15.0591H107.205V18.1637H109.81C110.776 18.1637 111.501 17.5589 111.501 16.6114Z" fill="#003846"/>
<path id="Fill 15" fill-rule="evenodd" clip-rule="evenodd" d="M90.3136 32.6031C88.9744 32.6031 88.1176 33.6255 88.1176 34.9849C88.1176 36.3356 88.9744 37.3681 90.3136 37.3681C91.6528 37.3681 92.5226 36.3356 92.5226 34.9849C92.5226 33.6255 91.6528 32.6031 90.3136 32.6031Z" fill="#DE1E3A"/>
<path id="Fill 17" fill-rule="evenodd" clip-rule="evenodd" d="M124.881 32.7128H121.291V34.2449H124.804V35.6057H121.291V37.2488H124.881V38.6096H119.746V31.352H124.881V32.7128ZM118.307 38.6096H116.815L113.356 33.8763V38.6096H111.811V31.352H113.398L116.762 35.911V31.352H118.307V38.6096ZM108.83 38.6096H110.374V31.352H108.83V38.6096ZM107.75 38.6096H103.137V31.352H104.682V37.2488H107.75V38.6096ZM101.698 38.6096H100.206L96.7474 33.8763V38.6096H95.2037V31.352H96.7906L100.153 35.911V31.352H101.698V38.6096ZM90.3135 38.7392C88.129 38.7392 86.5277 37.1739 86.5277 34.9851C86.5277 32.7992 88.129 31.2324 90.3135 31.2324C92.5109 31.2324 94.1108 32.7992 94.1108 34.9851C94.1108 37.1739 92.5109 38.7392 90.3135 38.7392ZM81.4748 42.332H129.932V27.6396H81.4748V42.332Z" fill="#DE1E3A"/>
</g>
</svg>
